<svg class="main-svg" xmlns="http://www.w3.org/2000/svg" xmlns:xlink="http://www.w3.org/1999/xlink" width="1200" height="800" style="" viewBox="0 0 1200 800"><rect x="0" y="0" width="1200" height="800" style="fill: rgb(255, 255, 255); fill-opacity: 1;"/><defs id="defs-86a6c7"><g class="clips"><clipPath id="clip86a6c7xyplot" class="plotclip"><rect width="1025" height="515"/></clipPath><clipPath class="axesclip" id="clip86a6c7x"><rect x="125" y="0" width="1025" height="800"/></clipPath><clipPath class="axesclip" id="clip86a6c7y"><rect x="0" y="140" width="1200" height="515"/></clipPath><clipPath class="axesclip" id="clip86a6c7xy"><rect x="125" y="140" width="1025" height="515"/></clipPath></g><g class="gradients"/><g class="patterns"/></defs><g class="bglayer"/><g class="layer-below"><g class="imagelayer"/><g class="shapelayer"/></g><g class="cartesianlayer"><g class="subplot xy"><g class="layer-subplot"><g class="shapelayer"/><g class="imagelayer"/></g><g class="minor-gridlayer"><g class="x"/><g class="y"/></g><g class="gridlayer"><g class="x"><path class="xgrid crisp" transform="translate(341.2,0)" d="M0,140v515" style="stroke: rgb(232, 237, 233); stroke-opacity: 1; stroke-width: 1px;"/><path class="xgrid crisp" transform="translate(556.8399999999999,0)" d="M0,140v515" style="stroke: rgb(232, 237, 233); stroke-opacity: 1; stroke-width: 1px;"/><path class="xgrid crisp" transform="translate(772.48,0)" d="M0,140v515" style="stroke: rgb(232, 237, 233); stroke-opacity: 1; stroke-width: 1px;"/><path class="xgrid crisp" transform="translate(988.12,0)" d="M0,140v515" style="stroke: rgb(232, 237, 233); stroke-opacity: 1; stroke-width: 1px;"/></g><g class="y"><path class="ygrid crisp" transform="translate(0,570.2)" d="M125,0h1025" style="stroke: rgb(232, 237, 233); stroke-opacity: 1; stroke-width: 1px;"/><path class="ygrid crisp" transform="translate(0,470.92)" d="M125,0h1025" style="stroke: rgb(232, 237, 233); stroke-opacity: 1; stroke-width: 1px;"/><path class="ygrid crisp" transform="translate(0,371.65)" d="M125,0h1025" style="stroke: rgb(232, 237, 233); stroke-opacity: 1; stroke-width: 1px;"/><path class="ygrid crisp" transform="translate(0,272.37)" d="M125,0h1025" style="stroke: rgb(232, 237, 233); stroke-opacity: 1; stroke-width: 1px;"/><path class="ygrid crisp" transform="translate(0,173.1)" d="M125,0h1025" style="stroke: rgb(232, 237, 233); stroke-opacity: 1; stroke-width: 1px;"/></g></g><g class="zerolinelayer"/><g class="layer-between"><g class="shapelayer"/><g class="imagelayer"/></g><path class="xlines-below"/><path class="ylines-below"/><g class="overlines-below"/><g class="xaxislayer-below"/><g class="yaxislayer-below"/><g class="overaxes-below"/><g class="overplot"><g class="xy" transform="translate(125,140)" clip-path="url(#clip86a6c7xyplot)"><g class="scatterlayer mlayer"><g class="trace scatter trace2eb364" style="stroke-miterlimit: 2; opacity: 1;"><g class="fills"/><g class="errorbars"><g class="errorbar"><path class="yerror" d="M51.75,449.54h10m-5,0V489.25m-5,0h10" style="vector-effect: none; stroke-width: 1.8px; stroke: rgb(86, 120, 107); stroke-opacity: 1;"/><path class="xerror" d="M57.68,464.4v10m0,-5H55.81m0,-5v10" style="vector-effect: none; stroke-width: 1.8px; stroke: rgb(86, 120, 107); stroke-opacity: 1;"/></g><g class="errorbar"><path class="yerror" d="M328.98,321.84h10m-5,0V341.7m-5,0h10" style="vector-effect: none; stroke-width: 1.8px; stroke: rgb(86, 120, 107); stroke-opacity: 1;"/><path class="xerror" d="M336.87,326.77v10m0,-5H331.09m0,-5v10" style="vector-effect: none; stroke-width: 1.8px; stroke: rgb(86, 120, 107); stroke-opacity: 1;"/></g><g class="errorbar"><path class="yerror" d="M507.59000000000003,244.65h10m-5,0V257.88m-5,0h10" style="vector-effect: none; stroke-width: 1.8px; stroke: rgb(86, 120, 107); stroke-opacity: 1;"/><path class="xerror" d="M513,246.27v10m0,-5H512.19m0,-5v10" style="vector-effect: none; stroke-width: 1.8px; stroke: rgb(86, 120, 107); stroke-opacity: 1;"/></g><g class="errorbar"><path class="yerror" d="M635.5,189.18h10m-5,0V199.11m-5,0h10" style="vector-effect: none; stroke-width: 1.8px; stroke: rgb(86, 120, 107); stroke-opacity: 1;"/><path class="xerror" d="M640.85,189.15v10m0,-5H640.15m0,-5v10" style="vector-effect: none; stroke-width: 1.8px; stroke: rgb(86, 120, 107); stroke-opacity: 1;"/></g><g class="errorbar"><path class="yerror" d="M723.08,145.87h10m-5,0V153.81m-5,0h10" style="vector-effect: none; stroke-width: 1.8px; stroke: rgb(86, 120, 107); stroke-opacity: 1;"/><path class="xerror" d="M728.59,144.84v10m0,-5H727.56m0,-5v10" style="vector-effect: none; stroke-width: 1.8px; stroke: rgb(86, 120, 107); stroke-opacity: 1;"/></g><g class="errorbar"><path class="yerror" d="M800.61,110.33h10m-5,0V116.95m-5,0h10" style="vector-effect: none; stroke-width: 1.8px; stroke: rgb(86, 120, 107); stroke-opacity: 1;"/><path class="xerror" d="M806.08,108.64v10m0,-5H805.14m0,-5v10" style="vector-effect: none; stroke-width: 1.8px; stroke: rgb(86, 120, 107); stroke-opacity: 1;"/></g><g class="errorbar"><path class="yerror" d="M854.7,80.2h10m-5,0V85.87m-5,0h10" style="vector-effect: none; stroke-width: 1.8px; stroke: rgb(86, 120, 107); stroke-opacity: 1;"/><path class="xerror" d="M859.99,78.04v10m0,-5H859.4m0,-5v10" style="vector-effect: none; stroke-width: 1.8px; stroke: rgb(86, 120, 107); stroke-opacity: 1;"/></g><g class="errorbar"><path class="yerror" d="M909.99,54.04h10m-5,0V59m-5,0h10" style="vector-effect: none; stroke-width: 1.8px; stroke: rgb(86, 120, 107); stroke-opacity: 1;"/><path class="xerror" d="M915.26,51.52v10m0,-5H914.72m0,-5v10" style="vector-effect: none; stroke-width: 1.8px; stroke: rgb(86, 120, 107); stroke-opacity: 1;"/></g><g class="errorbar"><path class="yerror" d="M963.25,30.93h10m-5,0V35.34m-5,0h10" style="vector-effect: none; stroke-width: 1.8px; stroke: rgb(86, 120, 107); stroke-opacity: 1;"/><path class="xerror" d="M969.06,28.14v10m0,-5H967.45m0,-5v10" style="vector-effect: none; stroke-width: 1.8px; stroke: rgb(86, 120, 107); stroke-opacity: 1;"/></g></g><g class="lines"/><g class="points"><path class="point plotly-customdata" transform="translate(56.75,469.4)" d="M5,0A5,5 0 1,1 0,-5A5,5 0 0,1 5,0Z" style="opacity: 1; stroke-width: 0.6px; fill: rgb(21, 94, 82); fill-opacity: 1; stroke: rgb(255, 255, 255); stroke-opacity: 1;"/><path class="point plotly-customdata" transform="translate(333.98,331.77)" d="M5,0A5,5 0 1,1 0,-5A5,5 0 0,1 5,0Z" style="opacity: 1; stroke-width: 0.6px; fill: rgb(21, 94, 82); fill-opacity: 1; stroke: rgb(255, 255, 255); stroke-opacity: 1;"/><path class="point plotly-customdata" transform="translate(512.59,251.27)" d="M5,0A5,5 0 1,1 0,-5A5,5 0 0,1 5,0Z" style="opacity: 1; stroke-width: 0.6px; fill: rgb(21, 94, 82); fill-opacity: 1; stroke: rgb(255, 255, 255); stroke-opacity: 1;"/><path class="point plotly-customdata" transform="translate(640.5,194.15)" d="M5,0A5,5 0 1,1 0,-5A5,5 0 0,1 5,0Z" style="opacity: 1; stroke-width: 0.6px; fill: rgb(21, 94, 82); fill-opacity: 1; stroke: rgb(255, 255, 255); stroke-opacity: 1;"/><path class="point plotly-customdata" transform="translate(728.08,149.84)" d="M5,0A5,5 0 1,1 0,-5A5,5 0 0,1 5,0Z" style="opacity: 1; stroke-width: 0.6px; fill: rgb(21, 94, 82); fill-opacity: 1; stroke: rgb(255, 255, 255); stroke-opacity: 1;"/><path class="point plotly-customdata" transform="translate(805.61,113.64)" d="M5,0A5,5 0 1,1 0,-5A5,5 0 0,1 5,0Z" style="opacity: 1; stroke-width: 0.6px; fill: rgb(21, 94, 82); fill-opacity: 1; stroke: rgb(255, 255, 255); stroke-opacity: 1;"/><path class="point plotly-customdata" transform="translate(859.7,83.04)" d="M5,0A5,5 0 1,1 0,-5A5,5 0 0,1 5,0Z" style="opacity: 1; stroke-width: 0.6px; fill: rgb(21, 94, 82); fill-opacity: 1; stroke: rgb(255, 255, 255); stroke-opacity: 1;"/><path class="point plotly-customdata" transform="translate(914.99,56.52)" d="M5,0A5,5 0 1,1 0,-5A5,5 0 0,1 5,0Z" style="opacity: 1; stroke-width: 0.6px; fill: rgb(21, 94, 82); fill-opacity: 1; stroke: rgb(255, 255, 255); stroke-opacity: 1;"/><path class="point plotly-customdata" transform="translate(968.25,33.14)" d="M5,0A5,5 0 1,1 0,-5A5,5 0 0,1 5,0Z" style="opacity: 1; stroke-width: 0.6px; fill: rgb(21, 94, 82); fill-opacity: 1; stroke: rgb(255, 255, 255); stroke-opacity: 1;"/></g><g class="text"/></g><g class="trace scatter trace4e95cd" style="stroke-miterlimit: 2; opacity: 1;"><g class="fills"/><g class="errorbars"/><g class="lines"><path class="js-line" d="M56.75,472.71L968.25,32.45" style="vector-effect: none; fill: none; stroke: rgb(199, 121, 72); stroke-opacity: 1; stroke-width: 2px; opacity: 1;"/></g><g class="points"/><g class="text"/></g></g></g></g><g class="zerolinelayer-above"/><path class="xlines-above crisp" d="M124,655.5H1151M124,139.5H1151" style="fill: none; stroke-width: 1px; stroke: rgb(138, 153, 144); stroke-opacity: 1;"/><path class="ylines-above crisp" d="M124.5,140V655M1150.5,140V655" style="fill: none; stroke-width: 1px; stroke: rgb(138, 153, 144); stroke-opacity: 1;"/><g class="overlines-above"/><g class="xaxislayer-above"><path class="xtick ticks crisp" d="M0,656v5" transform="translate(125.56,0)" style="stroke: rgb(138, 153, 144); stroke-opacity: 1; stroke-width: 1px;"/><path class="xtick ticks crisp" d="M0,656v5" transform="translate(341.2,0)" style="stroke: rgb(138, 153, 144); stroke-opacity: 1; stroke-width: 1px;"/><path class="xtick ticks crisp" d="M0,656v5" transform="translate(556.8399999999999,0)" style="stroke: rgb(138, 153, 144); stroke-opacity: 1; stroke-width: 1px;"/><path class="xtick ticks crisp" d="M0,656v5" transform="translate(772.48,0)" style="stroke: rgb(138, 153, 144); stroke-opacity: 1; stroke-width: 1px;"/><path class="xtick ticks crisp" d="M0,656v5" transform="translate(988.12,0)" style="stroke: rgb(138, 153, 144); stroke-opacity: 1; stroke-width: 1px;"/><g class="xtick"><text text-anchor="middle" x="0" y="687.4" transform="translate(125.56,0)" style="font-family: Arial, sans-serif; font-size: 22px; fill: rgb(51, 76, 64); fill-opacity: 1; white-space: pre;">−2</text></g><g class="xtick"><text text-anchor="middle" x="0" y="687.4" style="font-family: Arial, sans-serif; font-size: 22px; fill: rgb(51, 76, 64); fill-opacity: 1; white-space: pre;" transform="translate(341.2,0)">−1,5</text></g><g class="xtick"><text text-anchor="middle" x="0" y="687.4" style="font-family: Arial, sans-serif; font-size: 22px; fill: rgb(51, 76, 64); fill-opacity: 1; white-space: pre;" transform="translate(556.8399999999999,0)">−1</text></g><g class="xtick"><text text-anchor="middle" x="0" y="687.4" style="font-family: Arial, sans-serif; font-size: 22px; fill: rgb(51, 76, 64); fill-opacity: 1; white-space: pre;" transform="translate(772.48,0)">−0,5</text></g><g class="xtick"><text text-anchor="middle" x="0" y="687.4" style="font-family: Arial, sans-serif; font-size: 22px; fill: rgb(51, 76, 64); fill-opacity: 1; white-space: pre;" transform="translate(988.12,0)">0</text></g></g><g class="yaxislayer-above"><path class="ytick ticks crisp" d="M124,0h-5" transform="translate(0,570.2)" style="stroke: rgb(138, 153, 144); stroke-opacity: 1; stroke-width: 1px;"/><path class="ytick ticks crisp" d="M124,0h-5" transform="translate(0,470.92)" style="stroke: rgb(138, 153, 144); stroke-opacity: 1; stroke-width: 1px;"/><path class="ytick ticks crisp" d="M124,0h-5" transform="translate(0,371.65)" style="stroke: rgb(138, 153, 144); stroke-opacity: 1; stroke-width: 1px;"/><path class="ytick ticks crisp" d="M124,0h-5" transform="translate(0,272.37)" style="stroke: rgb(138, 153, 144); stroke-opacity: 1; stroke-width: 1px;"/><path class="ytick ticks crisp" d="M124,0h-5" transform="translate(0,173.1)" style="stroke: rgb(138, 153, 144); stroke-opacity: 1; stroke-width: 1px;"/><g class="ytick"><text text-anchor="end" x="114.6" y="7.699999999999999" transform="translate(0,570.2)" style="font-family: Arial, sans-serif; font-size: 22px; fill: rgb(51, 76, 64); fill-opacity: 1; white-space: pre;">2,5</text></g><g class="ytick"><text text-anchor="end" x="114.6" y="7.699999999999999" style="font-family: Arial, sans-serif; font-size: 22px; fill: rgb(51, 76, 64); fill-opacity: 1; white-space: pre;" transform="translate(0,470.92)">3</text></g><g class="ytick"><text text-anchor="end" x="114.6" y="7.699999999999999" style="font-family: Arial, sans-serif; font-size: 22px; fill: rgb(51, 76, 64); fill-opacity: 1; white-space: pre;" transform="translate(0,371.65)">3,5</text></g><g class="ytick"><text text-anchor="end" x="114.6" y="7.699999999999999" style="font-family: Arial, sans-serif; font-size: 22px; fill: rgb(51, 76, 64); fill-opacity: 1; white-space: pre;" transform="translate(0,272.37)">4</text></g><g class="ytick"><text text-anchor="end" x="114.6" y="7.699999999999999" style="font-family: Arial, sans-serif; font-size: 22px; fill: rgb(51, 76, 64); fill-opacity: 1; white-space: pre;" transform="translate(0,173.1)">4,5</text></g></g><g class="overaxes-above"/></g></g><g class="polarlayer"/><g class="smithlayer"/><g class="ternarylayer"/><g class="geolayer"/><g class="funnelarealayer"/><g class="pielayer"/><g class="iciclelayer"/><g class="treemaplayer"/><g class="sunburstlayer"/><g class="glimages"/><defs id="topdefs-86a6c7"><g class="clips"/><clipPath id="legend86a6c7"><rect width="420" height="42" x="0" y="0"/></clipPath></defs><g class="layer-above"><g class="imagelayer"/><g class="shapelayer"/></g><g class="infolayer"><g class="legend" pointer-events="all" transform="translate(427.5,750)"><rect class="bg" shape-rendering="crispEdges" width="420" height="42" x="0" y="0" style="stroke: rgb(68, 68, 68); stroke-opacity: 1; fill: rgb(255, 255, 255); fill-opacity: 1; stroke-width: 0px;"/><g class="scrollbox" transform="" clip-path="url(#legend86a6c7)"><g class="groups"><g class="traces" transform="translate(0,20.8)" style="opacity: 1;"><text class="legendtext" text-anchor="start" x="40" y="8.58" style="font-family: Arial, sans-serif; font-size: 22px; fill: rgb(51, 76, 64); fill-opacity: 1; white-space: pre;">Dados experimentais</text><g class="layers" style="opacity: 1;"><g class="legendfill"/><g class="legendlines"/><g class="legendsymbols"><g class="legendpoints"><path class="scatterpts" transform="translate(20,0)" d="M5,0A5,5 0 1,1 0,-5A5,5 0 0,1 5,0Z" style="opacity: 1; stroke-width: 0.6px; fill: rgb(21, 94, 82); fill-opacity: 1; stroke: rgb(255, 255, 255); stroke-opacity: 1;"/></g></g></g><rect class="legendtoggle" x="0" y="-15.8" width="249.171875" height="31.6" style="fill: rgb(0, 0, 0); fill-opacity: 0;"/></g><g class="traces" transform="translate(251.671875,20.8)" style="opacity: 1;"><text class="legendtext" text-anchor="start" x="40" y="8.58" style="font-family: Arial, sans-serif; font-size: 22px; fill: rgb(51, 76, 64); fill-opacity: 1; white-space: pre;">Ajuste linear</text><g class="layers" style="opacity: 1;"><g class="legendfill"/><g class="legendlines"><path class="js-line" d="M5,0h30" style="fill: none; stroke: rgb(199, 121, 72); stroke-opacity: 1; stroke-width: 2px;"/></g><g class="legendsymbols"><g class="legendpoints"/></g></g><rect class="legendtoggle" x="0" y="-15.8" width="165.23828125" height="31.6" style="fill: rgb(0, 0, 0); fill-opacity: 0;"/></g></g></g><rect class="scrollbar" rx="20" ry="3" width="0" height="0" x="0" y="0" style="fill: rgb(128, 139, 164); fill-opacity: 1;"/></g><g class="g-gtitle"><text class="gtitle" x="600" y="24" text-anchor="middle" dy="0.7em" style="opacity: 1; font-family: Arial, sans-serif; font-size: 28px; fill: rgb(51, 76, 64); fill-opacity: 1; white-space: pre;">Linearização da relação distância–tempo</text></g><g class="g-xtitle"><text class="xtitle" x="637.5" y="726.700390625" text-anchor="middle" style="opacity: 1; font-family: Arial, sans-serif; font-size: 24px; fill: rgb(51, 76, 64); fill-opacity: 1; white-space: pre;">ln(t̄ / 1 s)</text></g><g class="g-ytitle"><text class="ytitle" transform="rotate(-90,60.105859374999994,397.5)" x="60.105859374999994" y="397.5" text-anchor="middle" style="opacity: 1; font-family: Arial, sans-serif; font-size: 24px; fill: rgb(51, 76, 64); fill-opacity: 1; white-space: pre;">ln(x / 1 cm)</text></g><g class="annotation" data-index="0" style="opacity: 1;"><g class="annotation-text-g" transform="rotate(0,637.5,104.89999999999996)"><g class="cursor-pointer" transform="translate(360,90)"><rect class="bg" x="0.5" y="0.5" width="554" height="28" style="stroke-width: 1px; stroke: rgb(0, 0, 0); stroke-opacity: 0; fill: rgb(0, 0, 0); fill-opacity: 0;"/><text class="annotation-text" text-anchor="middle" x="278.125" y="22" style="font-family: Arial, sans-serif; font-size: 22px; fill: rgb(143, 81, 46); fill-opacity: 1; white-space: pre;">Y = 1,049143 X + 4,247507 · R² ponderado = 0,9991172</text></g></g></g></g></svg>